# AST/ASF file generated using VICON BodyLanguage
# -----------------------------------------------
:version 1.10
:name VICON
:units
  mass 1.0
  length 0.45
  angle deg
:documentation
   .ast/.asf automatically generated from VICON data using
   VICON BodyBuilder and BodyLanguage model FoxedUp or BRILLIANT.MOD
:root
   order TX TY TZ RX RY RZ
   axis XYZ
   position 0 0 0  
   orientation 0 0 0 
:bonedata
  begin
     id 1 
     name lhipjoint
     direction 0.650112 -0.723553 0.232005 
     length 2.45805 
     axis 0 0 0  XYZ
  end
  begin
     id 2 
     name lfemur
     direction 0.34202 -0.939693 0  
     length 7.00073  
     axis 0 0 20  XYZ
    dof rx ry rz
    limits (-160.0 20.0)
           (-70.0 70.0)
           (-60.0 70.0)
  end
  begin
     id 3 
     name ltibia
     direction 0.34202 -0.939693 0   
     length 7.8748   
     axis 0 0 20   XYZ
    dof rx
    limits (-10.0 170.0)
  end
  begin
     id 4 
     name lfoot
     direction 0.0542825 -0.14914 0.987325   
     length 1.75978   
     axis -90 7.62852e-016 20   XYZ
    dof rx rz
    limits (-45.0 90.0)
           (-70.0 20.0)
  end
  begin
     id 5 
     name ltoes
     direction 1.53509e-011 -4.21906e-011 1   
     length 0.893912   
     axis -90 7.62852e-016 20   XYZ
    dof rx
    limits (-90.0 20.0)
  end
  begin
     id 6 
     name rhipjoint
     direction -0.637897 -0.733345 0.235145   
     length 2.42522  
     axis 0 0 0  XYZ 
  end
  begin
     id 7 
     name rfemur
     direction -0.34202 -0.939693 0   
     length 7.02549   
     axis 0 0 -20   XYZ
    dof rx ry rz
    limits (-160.0 20.0)
           (-70.0 70.0)
           (-70.0 60.0)
  end
  begin
     id 8 
     name rtibia
     direction -0.34202 -0.939693 0   
     length 7.71512   
     axis 0 0 -20   XYZ
    dof rx
    limits (-10.0 170.0)
 end
 begin
     id 9 
     name rfoot
     direction -0.0822618 -0.226012 0.970645   
     length 1.90014  
     axis -90 -7.62852e-016 -20   XYZ
    dof rx rz
    limits (-45.0 90.0)
           (-20.0 70.0)
  end
  begin
     id 10 
     name rtoes
     direction -1.53542e-011 -4.21872e-011 1   
     length 0.957341   
     axis -90 -7.62852e-016 -20   XYZ
    dof rx
    limits (-90.0 20.0)
  end
  begin
     id 11 
     name lowerback
     direction -0.0022947 0.999774 -0.0211557   
     length 1.89909   
     axis 0 0 0   XYZ
    dof rx ry rz
    limits (-20.0 45.0)
           (-30.0 30.0)
           (-30.0 30.0)
  end
  begin
     id 12 
     name upperback
     direction 0.0107737 0.998635 0.0511027   
     length 1.8853   
     axis 0 0 0   XYZ
    dof rx ry rz
    limits (-20.0 45.0)
           (-30.0 30.0)
           (-30.0 30.0)
  end
  begin
     id 13 
     name thorax
     direction 0.011824 0.998136 0.0598754   
     length 1.88911   
     axis 0 0 0   XYZ
    dof rx ry rz
    limits (-20.0 45.0)
           (-30.0 30.0)
           (-30.0 30.0)
  end
  begin
     id 14 
     name lowerneck
     direction -0.0685355 0.990319 0.120714   
     length 1.91222   
     axis 0 0 0   XYZ
    dof rx ry rz
    limits (-20.0 45.0)
           (-30.0 30.0)
           (-30.0 30.0)
  end
  begin
     id 15 
     name upperneck
     direction 0.0886204 0.955665 -0.280805   
     length 1.92526   
     axis 0 0 0   XYZ
    dof rx ry rz
    limits (-20.0 45.0)
           (-30.0 30.0)
           (-30.0 30.0)
  end
  begin
     id 16
     name head
     direction 0.0233423 0.993502 -0.111393  
     length 1.96056  
     axis 0 0 0   XYZ
    dof rx ry rz
    limits (-20.0 45.0)
           (-30.0 30.0)
           (-30.0 30.0)
  end
  begin
     id 17 
     name lclavicle
     direction 0.941873 0.32922 0.0670041  
     length 3.31705  
     axis 0 0 0   XYZ
    dof ry rz
    limits (-20.0 10.0)
           (0.0 20.0)
  end
  begin
     id 18 
     name lhumerus
     direction 1 -4.4898e-011 3.38707e-028   
     length 5.29277   
     axis 180 -30 -90   XYZ
    dof rx ry rz
    limits (-60.0 90.0)
           (-90.0 90.0)
           (-90.0 90.0)
  end
  begin
     id 19
     name lradius
     direction 1 -4.48952e-011 1.63213e-028   
     length 2.85226   
     axis 180 -30 -90   XYZ
    dof rx
    limits (-10.0 170.0)
  end
  begin
     id 20
     name lwrist
     direction 1 -4.49001e-011 1.27856e-027   
     length 1.42613   
     axis -1.61767e-015 90 90   XYZ
    dof ry
    limits (-180.0 0.0)
 end
  begin
     id 21 
     name lhand
     direction 1 -4.48976e-011 2.55931e-027   
     length 0.602097   
     axis -1.63363e-015 90 90   XYZ
    dof rx rz
    limits (-90.0 90.0)
           (-45.0 45.0)
  end
  begin
     id 22 
     name lfingers
     direction 1 -4.48986e-011 5.11684e-027   
     length 0.485426   
     axis -3.26723e-015 90 90   XYZ
    dof rx
    limits (0.0 90.0)
  end
  begin
     id 23
     name lthumb
     direction 0.707107 -6.34915e-011 0.707107   
     length 0.696978   
     axis -90 45 -2.25915e-014   XYZ
    dof rx rz
    limits (-45.0 45.0)
           (-45.0 45.0)
  end
  begin
     id 24 
     name rclavicle
     direction -0.939974 0.327078 0.0973096   
     length 3.10337  
     axis 0 0 0   XYZ 
    dof ry rz
    limits (-10.0 20.0)
           (-20.0 0.0)
  end
  begin
     id 25 
     name rhumerus
     direction -1 -4.48975e-011 1.83745e-027  
     length 5.13304   
     axis 180 30 90   XYZ
    dof rx ry rz
    limits (-90.0 60.0)
           (-90.0 90.0)
           (-90.0 90.0)
  end
  begin
     id 26 
     name rradius
     direction -1 -4.48977e-011 7.1775e-029   
     length 2.74305   
     axis 180 30 90   XYZ
    dof rx
    limits (-10.0 170.0)
  end
  begin
     id 27 
     name rwrist
     direction -1 -4.48977e-011 1.27963e-027   
     length 1.37152   
     axis -1.61767e-015 -90 -90   XYZ
    dof ry
    limits (-180.0 0.0)
  end
  begin
     id 28
     name rhand
     direction -1 -4.4888e-011 2.56782e-027   
     length 0.767976   
     axis -1.63363e-015 -90 -90   XYZ
    dof rx rz
    limits (-90.0 90.0)
           (-45.0 45.0)
  end
  begin
     id 29
     name rfingers
     direction -1 -4.48947e-011 5.12384e-027   
     length 0.619162   
     axis -3.26723e-015 -90 -90   XYZ
    dof rx
    limits (0.0 90.0)
  end
  begin
     id 30
     name rthumb
     direction -0.707107 -6.34857e-011 0.707107   
     length 0.888997   
     axis -90 -45 2.25915e-014   XYZ
    dof rx rz
    limits (-45.0 45.0)
           (-45.0 45.0)
  end
:hierarchy
  begin
    root lhipjoint rhipjoint lowerback
    lhipjoint lfemur
    lfemur ltibia
    ltibia lfoot
    lfoot ltoes
    rhipjoint rfemur
    rfemur rtibia
    rtibia rfoot
    rfoot rtoes
    lowerback upperback
    upperback thorax
    thorax lowerneck lclavicle rclavicle
    lowerneck upperneck
    upperneck head
    lclavicle lhumerus
    lhumerus lradius
    lradius lwrist
    lwrist lhand lthumb
    lhand lfingers
    rclavicle rhumerus
    rhumerus rradius
    rradius rwrist
    rwrist rhand rthumb
    rhand rfingers
  end

#!OML:ASF F:\VICON\USERDATA\INSTALL\rory3\rory3.ASF
:FULLY-SPECIFIED
:DEGREES
128
root -0.126518 17.4352 -0.186931 1.8112 9.66205 -2.01989
lowerback 0.140978 -1.00425 -1.75587
upperback 2.25612 -1.3558 1.97002
thorax 2.32615 -0.733437 2.98365
lowerneck -8.70536 -11.2843 -21.0089
upperneck 12.8922 -16.4183 23.458
head 9.36859 -7.37299 9.56766
rclavicle 2.70844e-014 5.96354e-016
rhumerus -32.2534 30.1133 -96.6863
rradius 75.733
rwrist -5.65123
rhand -13.6386 5.82464
rfingers 7.12502
rthumb 12.4775 -23.7829
lclavicle 2.70844e-014 5.96354e-016
lhumerus -22.1981 -31.8859 97.1475
lradius 69.5517
lwrist 24.4199
lhand -8.3269 32.8927
lfingers 7.12502
lthumb 17.5943 62.1166
rfemur 6.39317 5.55051 22.1515
rtibia 0
rfoot -8.05194 -11.8193
rtoes -21.1034
lfemur -5.54394 -21.6053 -14.9783
ltibia 17.1968
lfoot -13.2455 8.67831
ltoes -24.968
129
root -0.129812 17.4348 -0.187453 1.81964 9.69892 -1.97199
lowerback 0.165964 -1.00703 -1.84961
upperback 2.25029 -1.35911 1.99325
thorax 2.30935 -0.736964 3.06088
lowerneck -8.64539 -11.275 -21.1487
upperneck 12.8548 -16.4064 23.5477
head 9.36528 -7.37418 9.63129
rclavicle 6.41081e-015 1.37161e-014
rhumerus -32.032 30.5228 -96.8301
rradius 76.9585
rwrist -5.90844
rhand -14.1867 5.74444
rfingers 7.12502
rthumb 11.9491 -23.8945
lclavicle 6.41081e-015 1.37161e-014
lhumerus -21.9886 -31.9894 97.2853
lradius 70.7144
lwrist 24.6831
lhand -8.47213 33.0063
lfingers 7.12502
lthumb 17.4545 62.2427
rfemur 6.39213 5.51202 22.1091
rtibia 1.90833e-014
rfoot -8.06764 -11.84
rtoes -21.0839
lfemur -5.59765 -21.555 -15.0186
ltibia 17.2686
lfoot -13.3244 8.58965
ltoes -24.4708
130
root -0.132891 17.4359 -0.188109 1.85014 9.7089 -2.00274
lowerback 0.155535 -0.990699 -1.85251
upperback 2.23115 -1.33747 2.01522
thorax 2.29468 -0.726037 3.08564
lowerneck -8.55138 -11.2609 -21.2197
upperneck 12.7684 -16.3931 23.6277
head 9.33114 -7.37483 9.67851
rclavicle -1.61761e-014 -9.34288e-015
rhumerus -31.8112 30.8799 -97.0219
rradius 78.0758
rwrist -5.97955
rhand -14.6555 5.64513
rfingers 7.12502
rthumb 11.497 -24.0196
lclavicle -1.61761e-014 -9.34288e-015
lhumerus -21.7613 -32.0456 97.3768
lradius 71.8571
lwrist 24.7951
lhand -8.72872 33.0118
lfingers 7.12502
lthumb 17.2076 62.2699
rfemur 6.34399 5.5042 22.1452
rtibia -1.27222e-014
rfoot -8.05835 -11.8071
rtoes -21.2218
lfemur -5.6454 -21.5321 -14.9554
ltibia 17.2622
lfoot -13.3856 8.50069
ltoes -23.6814
131
root -0.136217 17.4371 -0.187173 1.88096 9.75166 -2.08006
lowerback 0.141019 -0.994645 -1.80515
upperback 2.20193 -1.34331 2.03618
thorax 2.27248 -0.727628 3.08047
lowerneck -8.5596 -11.2717 -21.2215
upperneck 12.8076 -16.4086 23.6
head 9.34668 -7.38254 9.66604
rclavicle -1.01877e-014 -1.19271e-014
rhumerus -31.6114 31.1982 -97.2629
rradius 79.2328
rwrist -5.9071
rhand -14.9799 5.56229
rfingers 7.12502
rthumb 11.1841 -24.1196
lclavicle -1.01877e-014 -1.19271e-014
lhumerus -21.5856 -32.0491 97.4541
lradius 73.0588
lwrist 24.9105
lhand -9.21039 32.8702
lfingers 7.12502
lthumb 16.7439 62.1681
rfemur 6.29998 5.46475 22.2397
rtibia -4.77083e-015
rfoot -8.08203 -11.7819
rtoes -21.3857
lfemur -5.71692 -21.5106 -14.8258
ltibia 17.2895
lfoot -13.3094 8.45668
ltoes -24.2495
132
root -0.140291 17.4365 -0.189212 1.85654 9.81753 -2.11723
lowerback 0.233891 -0.972293 -1.7666
upperback 2.17546 -1.31426 2.02768
thorax 2.18981 -0.710886 3.05238
lowerneck -8.56489 -11.3275 -21.2613
upperneck 12.8922 -16.5037 23.6205
head 9.40681 -7.42601 9.66608
rclavicle -7.20594e-016 -3.97569e-015
rhumerus -31.2953 31.5108 -97.453
rradius 80.2991
rwrist -5.99474
rhand -14.9446 5.56372
rfingers 7.12502
rthumb 11.2182 -24.1163
lclavicle -7.20594e-016 -3.97569e-015
lhumerus -21.3925 -32.2008 97.5809
lradius 74.2035
lwrist 24.9523
lhand -9.67201 32.934
lfingers 7.12502
lthumb 16.2995 62.2689
rfemur 6.31355 5.39883 22.2959
rtibia -1.59028e-014
rfoot -8.07595 -11.7932
rtoes -21.0279
lfemur -5.74845 -21.4631 -14.7623
ltibia 17.314
lfoot -13.1221 8.47083
ltoes -25.7564
133
root -0.14253 17.437 -0.190641 1.8192 9.90051 -2.16639
lowerback 0.313312 -0.927429 -1.66251
upperback 2.16117 -1.25488 1.97715
thorax 2.1227 -0.677645 2.94413
lowerneck -8.51503 -11.3756 -21.1839
upperneck 12.8944 -16.5998 23.6401
head 9.41791 -7.46889 9.64352
rclavicle -3.74958e-014 1.21259e-014
rhumerus -30.9184 31.8682 -97.683
rradius 81.272
rwrist -6.31801
rhand -15.0784 5.80132
rfingers 7.12502
rthumb 11.0891 -23.8857
lclavicle -3.74958e-014 1.21259e-014
lhumerus -21.2145 -32.5241 97.6725
lradius 75.3684
lwrist 25.0167
lhand -9.94417 32.9968
lfingers 7.12502
lthumb 16.0374 62.3531
rfemur 6.32387 5.31596 22.3656
rtibia -6.36111e-015
rfoot -7.88227 -11.8085
rtoes -21.9711
lfemur -5.76381 -21.4359 -14.6968
ltibia 17.3242
lfoot -13.1414 8.36137
ltoes -25.5213
134
root -0.143007 17.4385 -0.191089 1.87516 10.0042 -2.12728
lowerback 0.264426 -0.900824 -1.62228
upperback 2.1566 -1.21768 1.88359
thorax 2.13988 -0.657421 2.82482
lowerneck -8.53299 -11.4263 -21.018
upperneck 12.892 -16.6945 23.6365
head 9.4288 -7.5033 9.59335
rclavicle -2.41648e-014 -5.56597e-015
rhumerus -30.4919 31.9393 -97.8953
rradius 82.1684
rwrist -6.34409
rhand -15.2753 6.14284
rfingers 7.12502
rthumb 10.8993 -23.5543
lclavicle -2.41648e-014 -5.56597e-015
lhumerus -21.0055 -32.7404 97.7128
lradius 76.5449
lwrist 25.0695
lhand -10.1871 33.0391
lfingers 7.12502
lthumb 15.8035 62.414
rfemur 6.25554 5.21343 22.3265
rtibia 1.11319e-014
rfoot -7.66949 -11.7899
rtoes -23.0445
lfemur -5.84407 -21.4955 -14.7019
ltibia 17.3088
lfoot -13.2797 8.28483
ltoes -24.3809
135
root -0.145968 17.4375 -0.190765 1.88203 9.93998 -2.09112
lowerback 0.257246 -0.909533 -1.73984
upperback 2.16076 -1.22908 1.93197
thorax 2.15283 -0.666074 2.9406
lowerneck -8.64407 -11.402 -21.1137
upperneck 12.9848 -16.6378 23.6198
head 9.47379 -7.47372 9.61434
rclavicle 1.8077e-014 -1.47101e-014
rhumerus -30.1323 32.2733 -97.9805
rradius 83.1011
rwrist -6.05747
rhand -15.7475 6.34098
rfingers 7.12502
rthumb 10.4437 -23.3796
lclavicle 1.8077e-014 -1.47101e-014
lhumerus -20.761 -32.5203 97.8643
lradius 77.6274
lwrist 25.0256
lhand -10.4464 33.0483
lfingers 7.12502
lthumb 15.5538 62.4428
rfemur 6.26472 5.27611 22.2928
rtibia 4.77083e-015
rfoot -7.86052 -11.802
rtoes -22.0385
lfemur -5.81516 -21.4494 -14.7374
ltibia 17.281
lfoot -13.3098 8.30841
ltoes -24.2567
136
root -0.147554 17.4367 -0.191107 1.87648 9.91868 -2.05081
lowerback 0.293845 -0.937623 -1.86026
upperback 2.14237 -1.26679 1.99173
thorax 2.12017 -0.687236 3.07021
lowerneck -8.65684 -11.3583 -21.242
upperneck 13.0241 -16.5551 23.6006
head 9.47787 -7.44152 9.64693
rclavicle 7.42958e-015 1.27222e-014
rhumerus -29.8223 32.8055 -98.0923
rradius 84.0852
rwrist -6.04095
rhand -16.4193 6.36495
rfingers 7.12502
rthumb 9.79564 -23.3872
lclavicle 7.42958e-015 1.27222e-014
lhumerus -20.4934 -32.3524 98.0348
lradius 78.6255
lwrist 25.1031
lhand -10.6702 33.0805
lfingers 7.12502
lthumb 15.3382 62.4916
rfemur 6.29587 5.29543 22.2494
rtibia -1.59028e-015
rfoot -8.10419 -11.787
rtoes -20.8202
lfemur -5.77777 -21.4499 -14.7833
ltibia 17.2413
lfoot -13.2862 8.26989
ltoes -24.0761
137
root -0.148433 17.4377 -0.191438 1.89382 9.96229 -2.05503
lowerback 0.282536 -0.942503 -1.847
upperback 2.12967 -1.27314 1.98651
thorax 2.11344 -0.689871 3.05714
lowerneck -8.67977 -11.3573 -21.2331
upperneck 13.0732 -16.557 23.5871
head 9.49682 -7.44038 9.64098
rclavicle 3.62782e-014 -1.37161e-014
rhumerus -29.3829 32.9946 -98.2327
rradius 84.9039
rwrist -5.92693
rhand -16.5989 6.27706
rfingers 7.12502
rthumb 9.62231 -23.4832
lclavicle 3.62782e-014 -1.37161e-014
lhumerus -20.0926 -32.5151 98.0518
lradius 79.5018
lwrist 25.1952
lhand -10.6814 32.8952
lfingers 7.12502
lthumb 15.3274 62.3072
rfemur 6.25337 5.25266 22.2654
rtibia 3.18055e-015
rfoot -7.88069 -11.7701
rtoes -21.6479
lfemur -5.79675 -21.4786 -14.7563
ltibia 17.2157
lfoot -13.276 8.13285
ltoes -23.1785
138
root -0.150442 17.4384 -0.191484 1.95675 10.0746 -2.05459
lowerback 0.246302 -0.959364 -1.85584
upperback 2.08942 -1.29495 1.98508
thorax 2.09401 -0.70021 3.05995
lowerneck -8.72993 -11.3511 -21.2289
upperneck 13.1546 -16.5538 23.5832
head 9.53219 -7.43415 9.6413
rclavicle -2.00524e-014 -8.94531e-015
rhumerus -28.964 33.054 -98.3218
rradius 85.7752
rwrist -5.49464
rhand -16.4314 5.7705
rfingers 7.12502
rthumb 9.784 -23.9822
lclavicle -2.00524e-014 -8.94531e-015
lhumerus -19.7187 -32.8966 98.0324
lradius 80.4533
lwrist 25.3115
lhand -10.916 32.9039
lfingers 7.12502
lthumb 15.1014 62.333
rfemur 6.17108 5.14248 22.281
rtibia -3.18055e-014
rfoot -7.6242 -11.7613
rtoes -22.5998
lfemur -5.8891 -21.4884 -14.6998
ltibia 17.1956
lfoot -13.2831 7.97085
ltoes -22.4249
139
root -0.154141 17.4366 -0.193966 1.91207 10.0799 -1.9992
lowerback 0.354652 -0.878721 -1.86217
upperback 2.07726 -1.18633 1.87086
thorax 2.01066 -0.64357 2.94937
lowerneck -8.68863 -11.3725 -21.0398
upperneck 13.1524 -16.6247 23.597
head 9.5255 -7.45908 9.60149
rclavicle 1.53437e-014 5.96354e-015
rhumerus -28.5675 33.0407 -98.5117
rradius 86.6832
rwrist -5.25155
rhand -16.8754 5.57646
rfingers 7.12502
rthumb 9.35558 -24.1959
lclavicle 1.53437e-014 5.96354e-015
lhumerus -19.4732 -33.5269 97.9876
lradius 81.5296
lwrist 25.5949
lhand -11.294 32.9619
lfingers 7.12502
lthumb 14.7372 62.418
rfemur 6.25043 5.13309 22.2231
rtibia -1.59028e-014
rfoot -7.80327 -11.7926
rtoes -22.0373
lfemur -5.84501 -21.5158 -14.7718
ltibia 17.2216
lfoot -13.3725 7.97351
ltoes -22.3783
140
root -0.155005 17.4365 -0.196769 1.97115 10.2263 -1.9281
lowerback 0.389503 -0.868183 -1.83899
upperback 2.0029 -1.1707 1.76017
thorax 1.91044 -0.632133 2.82349
lowerneck -8.54667 -11.3734 -20.9459
upperneck 13.1082 -16.6794 23.6922
head 9.50001 -7.48458 9.61687
rclavicle 8.22472e-015 -1.2424e-014
rhumerus -28.1863 33.0446 -98.7011
rradius 87.3529
rwrist -5.18924
rhand -17.2252 6.35541
rfingers 7.12502
rthumb 9.01808 -23.4318
lclavicle 8.22472e-015 -1.2424e-014
lhumerus -19.2543 -34.0301 98.0351
lradius 82.6122
lwrist 25.9722
lhand -11.6013 33.2744
lfingers 7.12502
lthumb 14.4412 62.752
rfemur 6.22128 4.98729 22.1189
rtibia 6.36111e-015
rfoot -8.09996 -11.7658
rtoes -21.0602
lfemur -5.97748 -21.7204 -14.8263
ltibia 17.2706
lfoot -13.2019 8.1895
ltoes -24.1089
141
root -0.152294 17.4387 -0.191857 2.19187 10.2237 -2.00896
lowerback 0.0831992 -0.874394 -1.71153
upperback 1.92518 -1.17722 1.79324
thorax 2.00095 -0.633823 2.7815
lowerneck -8.54762 -11.3705 -21.0605
upperneck 13.1872 -16.6823 23.7347
head 9.54369 -7.48819 9.65744
rclavicle -1.4971e-014 -6.26172e-015
rhumerus -27.9894 33.5276 -98.9683
rradius 88.3726
rwrist -5.88845
rhand -17.3122 6.02859
rfingers 7.12502
rthumb 8.93409 -23.7623
lclavicle -1.4971e-014 -6.26172e-015
lhumerus -18.7612 -34.2942 98.1214
lradius 83.528
lwrist 26.1436
lhand -11.9898 33.5728
lfingers 7.12502
lthumb 14.0668 63.0767
rfemur 5.96367 5.002 22.1769
rtibia -1.11319e-014
rfoot -7.95473 -11.7643
rtoes -21.6277
lfemur -6.2714 -21.8264 -14.6607
ltibia 17.321
lfoot -13.1832 8.35108
ltoes -24.3387
142
root -0.149159 17.4395 -0.184896 2.29153 10.2035 -2.07597
lowerback -0.160718 -0.894419 -1.63333
upperback 1.90583 -1.20379 1.85804
thorax 2.11957 -0.64759 2.80007
lowerneck -8.5568 -11.3413 -21.214
upperneck 13.2472 -16.6308 23.7576
head 9.56975 -7.46949 9.70665
rclavicle -1.33558e-014 8.05078e-015
rhumerus -27.7025 33.9208 -99.0878
rradius 89.317
rwrist -6.30379
rhand -17.3585 6.02101
rfingers 7.12502
rthumb 8.88941 -23.7717
lclavicle -1.33558e-014 8.05078e-015
lhumerus -18.3349 -34.3214 98.216
lradius 84.3544
lwrist 26.1285
lhand -12.2901 33.488
lfingers 7.12502
lthumb 13.7774 63.0118
rfemur 5.86061 5.02877 22.236
rtibia -3.18055e-015
rfoot -7.81507 -11.7389
rtoes -22.1031
lfemur -6.36359 -21.8842 -14.5544
ltibia 17.3122
lfoot -13.2913 8.35349
ltoes -23.4296
